<svg xmlns="http://www.w3.org/2000/svg" xmlns:xlink="http://www.w3.org/1999/xlink" version="1.1" id="Layer_1" x="0px" y="0px" width="100px" height="36.588px" viewBox="0 0 100 36.588" enable-background="new 0 0 100 36.588" xml:space="preserve">
<path d="M92.072,11.917C83.766,3.131,71.137,0,62.088,0C56.591,0,52.254,1.154,50,3.186C47.745,1.154,43.408,0,37.911,0  C28.863,0,16.234,3.131,7.928,11.917c-5.729,6.06-8.375,13.721-7.866,22.77c0.048,0.85,0.625,1.579,1.443,1.819  c0.188,0.056,0.379,0.082,0.568,0.082c0.633,0,1.243-0.3,1.628-0.83c1.701-2.341,6.624-7.954,11.184-9.302  c-1.104,1.961-2.255,4.409-1.116,6.509c0.299,0.552,0.84,0.932,1.46,1.028c0.623,0.099,1.251-0.102,1.704-0.535  c1.825-1.749,7.517-6.287,11.886-6.287c0.244,0,0.486,0.016,0.726,0.046c1.498,0.191,2.999,0.29,4.461,0.29c0,0,0,0,0,0  c6.507,0,12.244-1.942,15.993-5.19c3.748,3.248,9.486,5.19,15.994,5.19c1.462,0,2.963-0.099,4.461-0.29  c0.24-0.03,0.481-0.046,0.726-0.046c4.369,0,10.062,4.538,11.887,6.287c0.453,0.435,1.082,0.635,1.704,0.535  c0.62-0.097,1.161-0.477,1.46-1.028c1.139-2.098-0.012-4.546-1.115-6.507c4.551,1.351,9.479,6.961,11.184,9.301  c0.386,0.529,0.996,0.828,1.628,0.828c0.19,0,0.381-0.026,0.569-0.082c0.816-0.241,1.394-0.969,1.441-1.818  C100.448,25.638,97.8,17.977,92.072,11.917z"/>
</svg>